<?xml version="1.0" encoding="UTF-8" standalone="no"?>
<svg
   xmlns:dc="http://purl.org/dc/elements/1.1/"
   xmlns:cc="http://creativecommons.org/ns#"
   xmlns:rdf="http://www.w3.org/1999/02/22-rdf-syntax-ns#"
   xmlns:svg="http://www.w3.org/2000/svg"
   xmlns="http://www.w3.org/2000/svg"
   xmlns:sodipodi="http://sodipodi.sourceforge.net/DTD/sodipodi-0.dtd"
   xmlns:inkscape="http://www.inkscape.org/namespaces/inkscape"
   inkscape:version="1.0 (4035a4fb49, 2020-05-01)"
   sodipodi:docname="ultrasecreto.svg"
   id="svg3"
   version="1.1"
   viewBox="0 0 522.811 95.549"
   height="95.549"
   width="522.811">
  <metadata
     id="metadata9">
    <rdf:RDF>
      <cc:Work
         rdf:about="">
        <dc:format>image/svg+xml</dc:format>
        <dc:type
           rdf:resource="http://purl.org/dc/dcmitype/StillImage" />
      </cc:Work>
    </rdf:RDF>
  </metadata>
  <defs
     id="defs7" />
  <sodipodi:namedview
     inkscape:current-layer="svg3"
     inkscape:window-maximized="1"
     inkscape:window-y="-8"
     inkscape:window-x="-8"
     inkscape:cy="-25.076779"
     inkscape:cx="195.52613"
     inkscape:zoom="1.1160822"
     showgrid="false"
     id="namedview5"
     inkscape:window-height="705"
     inkscape:window-width="1366"
     inkscape:pageshadow="2"
     inkscape:pageopacity="0"
     guidetolerance="10"
     gridtolerance="10"
     objecttolerance="10"
     borderopacity="1"
     bordercolor="#666666"
     pagecolor="#ffffff" />
  <path
     style="fill:#c9e265;fill-opacity:1"
     fill="#ffc400"
     transform="translate(11.768 95.117) rotate(-3)"
     d="M-8.039-67.922v.164l.656,1.313-.164,1.8v.328l.328.492q.574,0,1.313-1.148h.328l.164.164-.328.656.328.656v.164L-6.4-63.5q-1.8.492-1.8.984v.164l.656,1.641a54.888,54.888,0,0,0,10.336-.656l.164.656,3.117-.164,12.961.328a19.291,19.291,0,0,0,8.039-1.312h.164l-.328.984v.164l.984-.164,8.7.164h.328a7.558,7.558,0,0,0,4.594-1.477L40.7-63.5l1.148-.328a2.336,2.336,0,0,0,1.8.82l-.164.82v1.148l.328.328H44.3a5.439,5.439,0,0,0,2.133-.328l.984.328v-.164l.164-.164v-.656q0-1.8-.656-1.8a3.888,3.888,0,0,0,.656-2.461l-.328-1.641-.82.164-5.742,1.477h-.328l.328-.984q0-.779-17.062-1.148H20.18A100.428,100.428,0,0,0,2.625-66.773l.656-.82v-.328ZM4.594-65.789,7.219-67.1a2.094,2.094,0,0,0,.492,1.477v.82H7.055l-1.641.492-.82-1.148Zm13.289.656.328-.328H18.7a5.582,5.582,0,0,1,2.461.82l-.328.656.328.328.82-.164v.656l-.82.164h-.82v.328h-.492Zm-16.406.656,1.477-.164v.656a1.556,1.556,0,0,1-1.477.82l.164-.82Zm32.484,6.4a1.5,1.5,0,0,0-1.477.82v.164h1.8q1.271,0,1.477.656l-.492.656v.164q0,1.477,2.461,1.8l1.148-.328a7.168,7.168,0,0,0-.82-3.117l-.82.164Zm-29.7.164q-3.158,0-3.609,4.1v.328l.656-.492h.328v.328a1,1,0,0,0-.984.656q0,.328.984.328v.164q0,.205-1.477.656v.164a4.825,4.825,0,0,1,2.133.656q2.42,2.953,2.789,2.953h.328A3.773,3.773,0,0,1,7.378-49.22v.328Q7.173-46.923,5.9-46.923l-.656-.164a2.793,2.793,0,0,1-2.3-3.117H1.477a1.16,1.16,0,0,0-.985.328,1.16,1.16,0,0,0-.328.985A4.39,4.39,0,0,1,1.313-46.1,2.325,2.325,0,0,0,.164-43.969v2.133q0,.492,2.133.492H3.609a12.489,12.489,0,0,0,3.445-.492A3.2,3.2,0,0,1,4.1-40.523H3.938a9.048,9.048,0,0,1-3.609-.82l-.164.164L.328-39.7.164-28.383q.369,5.414.984,5.414L2.461-23.3a2.646,2.646,0,0,0,.492,1.477q2.3.369,2.3.984v.492l-.492.492-2.3-.492q-.656.082-.656.492v.164q1.559,3.773,2.133,3.773h.328a3.545,3.545,0,0,1,2.3-.984h.492l6.07.82.984-.164.656.984v.328l-.164.164-.492-.328q-4.1-.615-4.1-1.148l-1.641.328H7.383l-1.8-.328-.984.82Q9.188-9.844,17.883-9.844q4.471-.164,5.25-.656a18.122,18.122,0,0,0,7.711-1.312q8.7-3.937,8.859-20.672v-5.578q0-1.8-1.312-1.8a4.041,4.041,0,0,0,1.148-3.281,17.6,17.6,0,0,0-.492-3.937h-.984v.164l.492.656v.164h-1.8l-.328-.328q.246-.533,2.625-1.641v-.164l-.164-.164.82-2.3-.328-.492h-.164l-.164.164q0,.492-.328.492H38.4a2.245,2.245,0,0,1-.984-1.148V-52l1.477.492q.246,0,.656-1.312,0-.656-2.461-.656l-3.445.164q-.492,0-.492.328v.164q0,.246,1.313.984l-.492.492L31.5-52.828l.492-.164-.82-.984L31.5-54.3q0,.82.328.82h.492q.656,0,1.641-1.477l-.328-.328H32.156q-2.133.287-2.133.82v2.133q0,.328.656.328,2.256,1.641,3.281,1.641h.164q.328,0,.492-.984h.164q0,.533.984,1.313l-3.937,1.148-1.641-.328-.164.164-.164,4.43q0,2.625,1.148,3.609h-.164a1.015,1.015,0,0,0-.855.289,1.015,1.015,0,0,0-.287.855l.328.984Q31.5-37.529,31.5-36.75v.164l-.164.164-1.148-.492h-.164l-.164.164.328,2.3-.492,8.7v1.969l.164.984v.164l-.82-.328q-.328,0-.656,2.3a1.89,1.89,0,0,0,.492,1.148q-4.266.574-4.266,1.477v.164a20.815,20.815,0,0,1,4.59.972v.164q-1.271,0-1.641.492l-.82-.492a6.069,6.069,0,0,0-2.3.82v-.164q0-.287,1.148-.656V-16.9a4.774,4.774,0,0,1-1.8-.82H23.3v.328q.656.082.656.492v.492l-.492.164-.492-.164v-.164l.164-.164v-.656l-.164-.164-1.641.164q-7.875,0-10.172-3.773l-1.312-4.1a2.872,2.872,0,0,0-1.477.82H8.2v-.328q.2-.656,1.477-.656v-5.414a5.439,5.439,0,0,0-.328-2.133q.328,0,.328-1.148v-.656A3.994,3.994,0,0,0,8.365-37.4q1.641,0,1.641-3.117l-.492-4.594L9.68-46.1l-.164-.164a5.88,5.88,0,0,0-2.133.656l-.328-.328q0-1.025,1.8-1.969l.984.164a9.1,9.1,0,0,0,.492-2.789v-1.15q-1.02-6.234-5.9-6.234Zm27.891.984a1.8,1.8,0,0,0-1.641.984v.492h.328a1.6,1.6,0,0,0,1.641-.82v-.164ZM31.66-45.445q0-1.148,1.969-1.641,1.271,0,1.477.656-1.148,0-1.148.656v.164l-.984-.328a1.89,1.89,0,0,1-1.148.492Zm4.43,1.477a1.761,1.761,0,0,1,1.641-.82l.82.164v.328l-.164.164-.328-.328a2.116,2.116,0,0,1-1.312.656h-.492ZM.656-36.422H.984a2.277,2.277,0,0,1,2.3,1.477l-.164.984H2.3A3.4,3.4,0,0,1,.656-36.422Zm35.6,3.281h.164l.164-.164h1.641l.164.164a.89.89,0,0,1-.656.656q-1.475,0-1.475-.656ZM8.7-32.32h.328v.164H8.7ZM-7.547-7.219l-.164.164L-7.875-.492v.164L-7.547,0h33.8q1.887-1.969,2.461-1.969.82.2.82.492L27.4-.328V0H47.414L47.25-1.641l.328-5.086q0-.492-.328-.492H32.813l.328,1.313-.656.82v.328h.656l1.477.492v.492L34.945-2.3v.164a17.852,17.852,0,0,1-5.906-.82v-.328Q31.5-4.389,31.5-5.414v-.164H29.367v-.328q1.8-.164,1.8-1.148H31l-.164-.164H1.313l-.164.164q0,.82-.328.82L.656-6.07q0-1.148-2.3-1.148l-5.086.164ZM.328-1.477.82-1.641l1.641.492q-.082.328-.82.656L.328-1.148ZM36.053-67.922l-.328.328v6.563l.328.328H85.271q.451,0,.656-2.3L85.763-67.6l-.328-.328Zm26.414,3.773,1.313-.492q0,.7,1.313,1.148v.164q-1.969,0-1.969.82h-.492l.164-1.148ZM48.521-57.586l-1.477.328Q43.6-55.371,43.6-47.578v1.641l.492,13.289L43.764-20.18q.41,7.875.984,7.875,1.025,2.3,6.07,2.3h1.148l9.516-.328,6.727.164,5.578-.328q3.609,0,3.609-2.953v-.984q-.738-3.445-2.461-3.445a1.89,1.89,0,0,1-1.148.492h-.328l-.984-.984-4.266.328-14.6-.328v-21.66l-.164-.164q-.82,0-.82-.328l-.164-.164v-1.969l-.328-.984h.492l.164.164q0,.492.328.492h.328l.164-.164.164-7.547a15.5,15.5,0,0,0-.82-5.086q-.779-1.8-3.445-1.8ZM85.436-7.219H35.889l-.164.164q.164,2.133.656,2.461a2.316,2.316,0,0,0-.656,1.641V-.328L36.053,0H85.436l.328-.328V-6.891Zm9.023-60.867H72.639l-.164.164.164,3.938-.164,3.117.164.164.164-.164,7.711.164,2.625-.164V-61.2q-.984-.328-.984-.656v-.492q2.461.533,3.117,1.641l1.148-.164h20.016l20.016.164v-.164l.164-.164v-6.891L125.3-67.6l-4.594-.492h-.82a3.318,3.318,0,0,0-1.641.492l.492,1.313v.328q-.943,0-1.969-1.969l-11.648-.164a6.354,6.354,0,0,0-3.281.82,2.442,2.442,0,0,0-1.969-.82H98.725q-3.609.533-3.609,1.313h-.164Q94.787-68.086,94.459-68.086ZM82.482-66.773l1.477.328v.164L83.3-65.3h-.328q-.369,0-.492-.984ZM74.936-64.8l1.477-.328v1.148H75.264l-.328-.328Zm36.258,1.477,1.8-1.312.328.82a2.258,2.258,0,0,1-1.8.82Zm4.1.82,2.133-.656v1.148h-.656l-1.8-.328q-.492,0-.492.984h-.328l-.164-.164.328-1.148.82.164Zm-23.46,1.3q.861-1.148,1.477-1.148l.656.328q0,.82-1.477.82Zm16.242,3.281-5.086.164h-2.133l-1.969.164v-.164H98.4q0,1.436-1.641,1.641l-.328-.82L93.15-55.293h-.164l.164-.492q0-.41-1.312-1.312l.328-.492v-.164L92-57.586l-6.4-.164a15.81,15.81,0,0,0-4.43.656q-1.312.861-1.312,3.281v.656q.041.82.328.82,0,2.01,5.742,2.3h2.133q5.66,0,6.727.82l-.164,16.734a44.683,44.683,0,0,0,.82,7.055,10.193,10.193,0,0,0-.82,3.445A4.289,4.289,0,0,0,96.1-18.7h-.656q-.984,0-.984,1.313v.984q0,4.717,4.922,6.07h.656a4.589,4.589,0,0,0,3.117-1.8l-.328-.328h-.82l-2.133.82H99.71l.656-.82q0-.369-.82-.492v-.164h.492l3.609.328q.82,0,.82-2.461a3.78,3.78,0,0,0-.656-1.8q.492,0,.492-.328v-1.969l-.164-.164-1.477.328a1.051,1.051,0,0,1-.984-.656V-20h.164l.164.164h.164L104.3-20.5v-29.2l.164.164,3.445-.492q1.518,0,1.8-2.3a11.05,11.05,0,0,0,3.938,1.313v.164q-1.271,0-1.477.656v.164l.328.328h1.148q3.281-.082,3.281-.82V-50.7h-.984l-1.148.164V-50.7h-.328v-.328l.82-.164,2.461.656a4.951,4.951,0,0,0,1.969-3.445v-.492q.005-3.441-11.644-3.441Zm-6.234,3.281q0-1.641,3.445-2.625-1.477,3.938-3.117,3.938h-.492v-.164l.492-.164Zm-4.922.164q0-.287.82-.492l1.8.492q0,.82-1.477.82H97.74l.164-.82Zm16.242,1.641a2.8,2.8,0,0,1,1.969-1.148l.492.164q-1.189,1.313-1.8,1.313ZM89.7-51.023q.738-1.8,2.133-1.8.738.328.82.656v.328H91.67a3.213,3.213,0,0,1-1.8.82Zm8.7,1.313q1.148,0,1.148.984l-.328.82.164.164q2.789.41,2.789,1.148l-.328.328a4.526,4.526,0,0,0-3.281-1.148l.328-.492L98.4-49.547Zm-.328,4.266h.164l2.789,1.313q-.082.328-.82.656L98.4-43.8l.164-.82v-.328q0-.328-.492-.328Zm.164,3.773,2.3.82v.164l-1.641.328h-.164v-.164h.328v-.328q0-.492-.984-.492v-.164Zm.656,2.461h.492l2.786,1.31v.656l-.164.164-1.312-.328-.328.328a2.277,2.277,0,0,1-1.477-1.969ZM97.58-27.89h.82q.943,1.313,1.313,1.313l-.492.492a3.978,3.978,0,0,1-1.969-.656Zm2.625,3.445,1.641.164-.328.656-1.641-.164ZM96.6-21.656l.492-.492h2.789v.492q-1.969,0-1.969.82a1.547,1.547,0,0,0-1.316-.82ZM90.2-7.383l-17.227.164q-.492,0-.492.328v1.313a4.8,4.8,0,0,0,.984,2.953q-.984,0-.984.492v1.8L72.8,0h1.477q8.982,0,14.6-.328L93.311,0q.369-1.641.656-1.641h.328v.164l-.328.492v.656L94.295,0h1.969Q97.9,0,97.9-1.148a4.938,4.938,0,0,0,2.3.984,1.287,1.287,0,0,0,1.313-.984l.492.492-.328.492V0h24.609l.328-.328v-.984a1.479,1.479,0,0,0-.984-1.477l.82-.82-.164-1.641.164-1.641q-9.352-.492-17.883-.492a55.013,55.013,0,0,0-11.32.82,46.086,46.086,0,0,0-7.054-.82Zm4.266.82q2.625.984,2.625,1.477v.164H96.92l-1.312-.492-.492.492Q94.664-5,94.459-6.234ZM88.881-4.43q0-.615,1.641-1.148h.164A3.6,3.6,0,0,1,89.537-4.1h-.164Zm-9.516.492h.164l.164,1.148v.328H79.2q-.656-.82-1.148-.82v-.164h.164l.656.164q.493,0,.493-.655ZM89.7-1.8l.492-.492h.328q1.8,0,1.8.492v.164q0,.287-.82.492Q89.7-1.436,89.7-1.8Zm25.84-66.445-.328,1.641h-.328l-.164-.164q-.164-1.312-.492-1.312h-.492l-.164.164A8.3,8.3,0,0,0,113.9-65.3l1.8-.492.656.656v.164l-1.641.328-.984-.164v3.773l10.828.164q2.42-.164,2.789-1.312.328,0,.984,1.313l1.477-.164,24.609.164a89.035,89.035,0,0,0,10.5-.82l.492.82,3.117-.164q.82,0,.82-1.8v-1.148q-1.107-4.43-3.773-4.43h-1.148a6.043,6.043,0,0,0-2.625.984q0-.615-2.625-.82l-11.648.164q-1.518,1.969-2.133,1.969l.492-1.969h-8.7Zm35.273,4.43q.205-.984.492-.984.9,1.148,1.641,1.148v.328l-.164.164a3.978,3.978,0,0,1-1.968-.661Zm-4.1.492,1.8.656,1.313-.164.328.984-.328.328h-.164q0-.984-.328-.984l-1.8.328h-.82ZM135.064-58.57a45.217,45.217,0,0,0-6.4.328q-5.209,0-5.906,5.906v.984a4.512,4.512,0,0,0,.82,2.3,2.519,2.519,0,0,0-.82,1.969q.246,2.625.656,2.625,1.148-.574,1.148-.82,0-.7-1.148-1.641v-.492a2.894,2.894,0,0,0,1.641-.492h.164q0,1.641,1.477,1.641l-1.8,1.313v.164l.328.492.492-.328h.164l.328,1.148v.164l-3.117-.656-.328.82.328,10.336-.164,1.148q1.477.205,1.477.492-1.477.369-1.477.656v5.086l.328,2.3q-.328,0-.492,1.641l.328.984.656-.164q1.477.369,1.477.82v.492l-.492.164-1.477-.492-.328.328L122.76-16.9q.164,1.148.492,1.148a3.817,3.817,0,0,1,2.133-1.477l.492.164v.164l-2.953,1.477q0,3.076,1.969,4.1l1.313-.984h.164v.492q-1.148.2-1.148.656t1.313.656l1.148-.328a6.255,6.255,0,0,1,3.773-1.641,2.573,2.573,0,0,1,.984-2.133q0-.451-1.477-.492l-1.641-1.8h-.164q0,.533-.82.82v-.164l-.164-.164a6.568,6.568,0,0,1,2.625-1.148l-.164-.656q.492-1.477,1.148-1.477l.656.164h.164v-.82l-.328-8.039.328-2.133q0-.984,2.789-.984a11.337,11.337,0,0,1,4.922,1.477q4.881,3.281,5.578,3.281v.492h-.164l-.984-.164h-.164l-.164.164v.328q4.266,5.742,4.266,6.234l2.133-.656h.492q-1.641.82-1.641,1.969v.328a2.834,2.834,0,0,0,2.3,2.953l-.164.656q0,.984,2.133,2.133l-.328.492q0,.246,1.313.82l1.148-1.477h.82l.328,1.148,1.8-.82q2.789-.41,2.789-1.641v-.164a5.856,5.856,0,0,0-1.641-3.281v-.164h.492v-.492l-.328-.492q-2.3-.369-2.3-.82l.984-.984v-.492l-.164-.492q-1.682-4.43-9.023-10.992.328-1.312.656-1.312h.328l.492.656q1.518,0,2.953-3.445l1.148,1.477h.164q.287,0,.492-.82a11.26,11.26,0,0,0,4.758-9.68V-46.43q0-5.045-5.414-9.023Q152.209-58.57,135.064-58.57Zm13.781,4.43,2.133.82a.89.89,0,0,1-.656.656,3.746,3.746,0,0,0-1.8-.82v-.164Zm1.641,2.953q3.24-.656,3.938-1.312l.984,2.625a5.946,5.946,0,0,0-2.133.82q0-1.354-2.789-1.969Zm-18.047.656q5.578-.615,5.578-1.477h.164v.656q9.639,1.025,11.648,2.3,0,1.559,1.969,2.461-.984,1.8-1.477,6.727v.164l-.82-.164h-.164l-2.133.984v.492h1.313q-.082.328-.82.656l-2.625-.656-.328.328v.164l.492.492h.164l-.164.492v.164h1.8l.492.492v.164l-1.477-.328h-.492l-.328.328v.328q.082.328.82.656a3.009,3.009,0,0,0,1.641-.82v.492q0,1.148,1.641,1.148a1.425,1.425,0,0,1-1.312.82l-2.461-.164q-.246-1.969-1.148-1.969-.492,0-.492.328v1.641h-.656v.492l.328.328.82-.656h.328q-.123.984-1.312.984h-.492q-.656,0-.82-2.953v-.328h.164l.164.164h.492a2.273,2.273,0,0,0,1.8-1.148,4.412,4.412,0,0,0-3.445-1.312l-8.531.164h-.16a12.325,12.325,0,0,0-.984-3.609q0-.287.82-.492l-.328-.984.164-1.8q0-.656-.492-.656a11.76,11.76,0,0,0,.82-4.266Zm14.766-.328.492-.492h.656q1.23,0,1.313.492l-.492.164Zm-20.18,2.953q.7-1.969,2.133-1.969h.328a4.59,4.59,0,0,0-1.477,3.117q-.614-.164-.984-1.148Zm-1.148,5.742q0-.615,2.625-1.312h.328a1.8,1.8,0,0,0,.656,1.148l-3.281.164h-.164l-.164.164Zm30.352,2.625a4.579,4.579,0,0,1,2.953-1.477h.164v.164l-.164.164q-2.3.574-2.3,1.477v.164l.164.164h-.164Zm-31.008.164q.2-.779.656-.82l1.313.164-1.477,1.477q-.287,0-.492-.821Zm2.625,10.664h1.313v.656l.328.984h-.164l-.164.164a3.88,3.88,0,0,1-1.312-1.641Zm-4.43,5.414.328-.328h.164q.328.082.656.82l-.328.328Zm3.609,7.383h.164a1.384,1.384,0,0,1,.82,1.148q0,.82-.492.984l-.328-.82-1.641.492h-.164v-.656q1.641,0,1.641-1.148Zm1.969,2.133a1.127,1.127,0,0,1,1.148-.656h.328l.328.328v.82h-.164Zm28.711,5.906-21,.984-1.8-.164v.328l1.969,1.148-.328.328h-.492l-.984-.984q-.943,1.8-2.133,1.8v.164l.656,1.148L132.6-.656v.164l11.977.328h6.234L162.3-.492V-.82h-.328V-.984l1.313-.328h.164l-.328.82.328.328h.328a4.482,4.482,0,0,0,2.133-1.148h.328q0,1.148,1.641,1.148h.82l.328-.328V-5.25l-.328-.328a1.89,1.89,0,0,0-1.148.492h-.164l-.328-.328v-.164l.164-.164q1.8-.451,1.8-.82v-.656l-.328-.328h-.656a2.687,2.687,0,0,1-1.641.984h-.164v-.164l.164-.164v-.164q0-.7-5.906-.82Zm-28.055.328a29.569,29.569,0,0,0-7.383,1.313V-6.4q0-.369,1.641-.656v-.328H113.9l-.328.328v.492l.328,5.086-.164.984V-.33l.164.164.656-.164,5.906.164Q122.1-.41,122.1-1.148h.164A5,5,0,0,0,125.385,0a10.821,10.821,0,0,0,4.758-1.477v.492a2.519,2.519,0,0,0,1.969-.82v-.164l-.164-.164-.82.164.164-1.312v-.328l-1.97-.491,2.625-3.117-.328-.328ZM115.541-5.414q0-.738,1.148-.984,1.8.164,1.8.492l-2.789.492Zm10.664,1.148q0-.287.82-.328h.164L126.7-3.117q.164.82.82.82v.328l-1.148.164h-.164v-.82q0-.492-1.148-.492,0-.287,1.148-.656h.164Zm9.516.984,1.969-.164q.82,0,.984.492A4.409,4.409,0,0,1,136.213-1.8h-.164ZM158.279-68.25l-.328.328v7.055l.164.164,28.711-.328,28.219.328.328-1.148q0-5-1.8-6.4ZM213.24-64.8l1.313.164-.164.492L214.553-63v.164h-.328a2.71,2.71,0,0,0-1.641-.82h-.328l-.164.164v-.164Q213.24-64.4,213.24-64.8Zm-26.578,6.563-1.8.164q-6.234,2.584-6.234,8.2v.164q2.461.369,2.461.82h-2.625q-2.3,3.65-8.2,20.18-5.578,11.689-5.578,13.945v.656q1.436,4.266,5.086,4.266h.492q2.092,0,3.609-2.953,2.174-8.121,3.773-9.023h5.086l12.469.164.82-.164.492,2.133q3.24,9.68,7.055,9.68a5.751,5.751,0,0,0,4.594-2.625q0-.615-1.641-1.8v-.492h.164l.984.984.492-.328a11.035,11.035,0,0,0-1.477-5.086q-.123-1.969-.656-1.969h-.164L204.545-21v-.164q1.148-1.025,1.148-1.477-4.1-9.187-9.516-24.281-3.117-11.32-9.352-11.32ZM186.17-47.9h.164q.492,1.969,1.477,1.969l-.164.82v.492q0,1.271,1.641,2.133v1.8l.328,1.969q3.609,8.982,3.609,9.68H179.607l.164-.82q3.445-8.08,3.445-10.172v-1.477l-.164-.164q1.641-.615,1.641-1.641v-.164l-.164-.164-.984.82.328-.984q1.272,0,2.3-4.1Zm-5.086,21.164a2,2,0,0,1,1.8-1.312h.328a2.432,2.432,0,0,0-.984,1.8,1.89,1.89,0,0,1-1.144-.493Zm-22.8,19.2-.328.328v5.25A3.049,3.049,0,0,0,158.443,0l1.8-.328,9.844.164a7.638,7.638,0,0,0,3.609-.82,9.333,9.333,0,0,0,3.117.82h1.477l2.461-.328V-.656q0-.328-.492-.328v-.492l.656.328,1.8-.492h.164q.287,0,.492.82l-.164.164-1.148-.492-.328.328v.328l.164.164,23.8.328q9.516,0,9.516-.656V-7.219l-.328-.328Zm63.328-60.539q-15.75.2-15.75.984v6.07l.328.328H209.8a8.349,8.349,0,0,0,3.609-.656,15.672,15.672,0,0,0,4.43.82l12.633-.164h.164q.615-1.969,1.641-1.969l-.82-.82v-.164l.164-.164.328.328a7.075,7.075,0,0,1,2.625.492l-.492,1.477v.164q0,.656,4.594.656h.82q4.266,0,4.266-.656v-.164l-.492-1.641v-.164l.82.164h.164l2.133-.656v.164l-1.148.984v.164l.164.164.984-.328h.164l-.164.492q0,.41,1.148,1.477h5.742q.492-.123.492-.984V-64.3l-.328-.328-1.969.656H251.3l-.328-.328v-.328h1.148q.82,0,.984-.492l-2.3-1.641h1.477a1.372,1.372,0,0,0,1.313-.82v-.164l-.164-.164Zm1.641,1.477q0-.287.82-.492l2.461.328h.492v.328a5.574,5.574,0,0,1-2.953.984H223.9l.164-.492v-.164l-.82.164Zm16.57,2.133q0-.246.656-.492a2.749,2.749,0,0,1,1.477,1.148v.328H241.3l-1.477-.656Zm-3.937.656.984-.984h.984l.164.164a1.59,1.59,0,0,1-1.477,1.148h-.656Zm-14.766-.164.492-.492h.328q.82,0,.984.492v.492l-.164.164-.984-.492h-.328l-.164.164v-.164Zm16.242,1.641.656-.656h1.148l1.313.328a1.08,1.08,0,0,1-1.148.82l-1.969-.328Zm-9.352,4.1a22.751,22.751,0,0,0-5.906.984q-9.844,3.979-9.844,11.484v1.148a10.418,10.418,0,0,0,1.477,5.742l.984-.328h.164v.328h-.492v.328a13.064,13.064,0,0,0,2.953,3.281q2.666,1.969,8.7,2.789l4.922,2.133q8.367,1.4,8.367,6.727l-.164,1.313q-1.189,5.414-9.516,5.414a8.44,8.44,0,0,1-7.219-3.445q-3.445-7.711-5.742-7.711h-1.148q-3.076,0-4.266,4.266.287,1.8.82,1.8a15.994,15.994,0,0,0,1.148,4.266q5.045,7.875,16.242,7.875a22.949,22.949,0,0,0,8.039-1.477v-.164l-.164-.164v-1.477q0-1.8-1.477-1.8v-.164l3.281-.328h.656q2.461.2,2.461.82-2.3,0-2.3,2.133v.164l.164.164a2.617,2.617,0,0,0,1.477-.656q0-.328-.492-.328v-.328h.328l.984-.164q5.578-3.24,5.578-8.531l-.328-1.969q.82,0,.82-.492v-.5l-.656-.656.328-1.8-.164-1.312q-1.641-5.25-4.1-5.25h-.984v-.164l.328-.492v-.492q-9.926-4.758-15.422-4.758h-.164v.164l2.3,2.461v.164h-.82q-2.789-.164-2.789-.82l.656-.328-.328-1.969q0-1.107-3.937-1.477l-2.789.164H219.8v-.656l-.164-.82a2.85,2.85,0,0,0,1.8-.984v-.492q0-.246-1.148-.82a14.114,14.114,0,0,1,2.953-4.266l-.164-.984a3.269,3.269,0,0,1,1.477-1.8l-.328-.492v-1.148l.164-.164q.451,0,1.313.82h.164a1.838,1.838,0,0,1,1.477-1.8l.656.164v.328q-2.584,1.559-2.625,2.3l.328.328h.328a2,2,0,0,0,1.313-.656h.328v.328l-.164.164q-.492,0-.492.328.123.492.984.492h.984a1.082,1.082,0,0,0,1.148-.656l.984.82q5.742,1.8,5.742,3.773l1.969-.328a3.545,3.545,0,0,1,2.3.984h.164l-.164-.82q0-.492.328-.492l.656.492h.164l1.477-.164q.984.328.984.656h-.656l-.984-.164h-.164l.164,1.641q0,.656-.984.656h-.164l-.656-1.312h-.164q-.246,0-1.641,2.789v.164l.164.164,1.641-.164-.328.984v.164h.984q3.9,0,4.43-4.594-.82-5.414-3.281-5.414-.328,0-.328.82L240.8-49.875a1.89,1.89,0,0,0-1.148-.492H238.5a3.318,3.318,0,0,0-1.641.492l-.164-.492q-1.969-.533-1.969-1.969l-.82.164-1.477-.328v-.164l6.891-.328,4.266.328v-.328l-.82-1.148q-4.389-3.281-6.727-3.281h-.164l-.164.164.328.82h-.164a20.575,20.575,0,0,0-7.873-1.805Zm2.3,1.313.328-.328h.164l1.641.492v.328l-.492.164L230.3-56.6Zm2.3,1.148v-.164q2.953.451,2.953.984l-.82.164H233.1l-.492.328.164.82v.164H232.6l-.164-.164h-.164l-.984.328v-.328a3.741,3.741,0,0,0,1.312-2.141Zm-13.289.82a3.776,3.776,0,0,1,2.625.82l-2.133.984h-.328v-.164l.656-.164V-53.8q-.451-.82-.984-.82V-54.8Zm9.352.328.492-.164,1.313.164A1.754,1.754,0,0,1,229-53.64h-.656V-53.8l.656-.164-.328-.492ZM220.295-40.2q.123-.492,1.313-.492h.164a8.273,8.273,0,0,1,3.445,1.477,5.675,5.675,0,0,1-3.773,1.477A4.766,4.766,0,0,1,218-38.883l.492-.492,4.266.656.328-.328v-.492l-.328-.492a5.439,5.439,0,0,0-2.133.328v-.164H220.3Zm10.828,3.773.164-.656q0-.533,2.133-.82l.656.164v.328l-.492.492h-1.477q-.41,0-.492.656h-.328Zm-2.133.492h.164l.164-.164h.328l1.969.328v.164q0,.492-1.312.656a1.287,1.287,0,0,1-1.313-.979Zm9.352,0h1.148v.164l-.164.164v.164l.164.164q.82.041.82.328l.164.164v.656h-3.117v-.984l1.148-.328V-35.6l-.164-.164Zm-11.32,1.477v-.164q2.625.738,2.625,1.148v.492h-2.461L226.2-33.3Zm8.039,1.969a3.126,3.126,0,0,1,1.641-1.148l-.164.82v.656h-.492Zm5.906-.82.328-.328a2.154,2.154,0,0,0,1.477.82v.164l-.492.492H241.3v-.82Zm-3.117.328.328-.328,1.641.164a1.479,1.479,0,0,1-.984,1.477q-.411,0-.985-1.309ZM206.186-7.547l-.328.328v.492a30.725,30.725,0,0,0,.328,4.922l-.164,1.477H209.3q1.313-.246,1.313-.656A9.641,9.641,0,0,0,214.389,0l8.531-.328h30.352l.328-.328V-7.383l-.164-.164-7.055.164ZM237.85-4.758q0-.328.984-.656h.328v.164q-.656,0-.656.328v.164l.164.164.984-.492h.328q-.615,1.148-1.148,1.148h-.328q0-.615-.656-.656Zm7.014-63.492-.328.328v2.3l.164,1.477L244.535-63v1.641q0,.246.656.492l3.773-.164,1.313.328.328-.328v-.328q-1.312-.164-1.312-.492h2.133l.328-.328q0-.533-2.625-1.148,0-.328,1.148-.492,1.969.328,1.969,1.477l-.82,1.148v.164h3.281l.164-.164a12.543,12.543,0,0,0-1.8-2.953l-4.266-.984h-.164q-.492,1.477-.82,1.477,0-.984-.492-.984h-1.8a2.954,2.954,0,0,0,.656-1.477h.328l1.148.82.492-.328L247-66.445v-.164l.164-.164,1.8.328h.164q.287,0,.656-.984a5.042,5.042,0,0,1,1.8.984Q254.42-63,256.02-63h.164l.328-.328-1.148-1.148v-.164l3.773-.328h.164l-.328.328L259.3-63l.984-.164h.164a2.116,2.116,0,0,0-.656,1.313v.328l.328.492.164-.164,3.938.492h.656q.2-1.477.492-1.477h.164l.492.328,1.313-.328v.164l.164.164q0,.246-.656.492l.328.328h1.477l.328-.328V-63l1.148.328h.492a4.73,4.73,0,0,1,2.133-1.148h.82v-.492l-.656-.82V-65.3l1.148-.164h.164a1.686,1.686,0,0,1,1.641,1.148q-2.5,0-6.07,3.117v.164h.164l.164-.164h1.641l10.992.328h.164a19.637,19.637,0,0,0,6.727-.984,3.831,3.831,0,0,0,2.953,1.148h1.641l.328-.328v-5.25a3.049,3.049,0,0,0-.492-1.969l-3.281.164h-.984l-14.93-.328h-.492a26.092,26.092,0,0,0-8.859,1.313q0-.9-1.8-1.312h-.82l-.984.328-4.1,2.133q-1.271-1.641-1.641-1.641l-.328.82h-.492l.328-.656-1.312-.82H253.4L252.082-67.1q0-.984-3.445-1.312l-3.117.164Zm8.039.82.492-.164,1.8.82q0,1.148.984,1.148v.164a1.8,1.8,0,0,0-1.148.656H254.7v-.164q-1.8-1.68-1.8-2.46Zm9.68.492.82-.492h.328l.984.984-1.477.656-.656-.984Zm-.656.82,1.148.328v.164l-.492.164q0,.328.492.328v.328h-.656a1.478,1.478,0,0,1-.82-.82Zm26.742,1.8q0-1.477,1.8-1.8.287,0,.492.82-.041.41-2.133.984Zm-24.937-.164a1.69,1.69,0,0,1,1.477-.984h.328a3.97,3.97,0,0,0-.82,1.8h-.164q0-.656-.82-.656Zm-5.742,1.8a1.89,1.89,0,0,0-1.148.492l1.313.82h.328l.328-.328v-.492l-.492-.492Zm21.984,4.922a35.359,35.359,0,0,0-5.414.492v.328l.82.492-.328.328h-.492a1.758,1.758,0,0,1-1.641-1.312h-.328q0,.656-.984.656a9.536,9.536,0,0,0-2.789-.82,6.793,6.793,0,0,0-3.281.82,24.866,24.866,0,0,0-5.742-.82H257.66q-4.184,0-5.578,3.281.082.656.492.656h1.477l.164-.164q.984.574.984.984l-.656.328-1.8-.656h-.656l-.328.328,1.477,1.148v.492q-1.559.82-1.641,1.313l.164,9.188v4.1l-.164,1.969,1.148.492h.164q2.994-3.609,4.1-3.609V-37.9l-.82-.82v-.164q.984,0,.984-.328a1.214,1.214,0,0,0-.984-.656v-.164h.164q1.969.7,1.969,2.3v.492a2.617,2.617,0,0,1-.656,1.477l-1.8-.656-.984.164q-.943,3.117-1.641,3.117H252.9l-1.148-.164v.164l-.164.164v.984l.492,2.461-.328,1.8v.164l2.3.328a19.168,19.168,0,0,0,4.43-.984v-.164l-.328-.328a1.963,1.963,0,0,1,.82-1.477h.492l1.148.984.656-.656v-1.477l.328-.328h3.117l9.68-.328,3.445.328v-.164l-.164-.984q0-1.23,2.133-1.641h.328q-1.477,1.436-1.477,2.3v.164l.328.328h1.8q4.266,0,4.266-3.281v-.164a2.936,2.936,0,0,0-.656-1.8q-2.01-2.3-7.055-2.3a27.712,27.712,0,0,0-7.711,1.313v.328a7.272,7.272,0,0,1,2.461.492v.164h-.328q-.533,1.313-.82,1.313h-.328l-.164-.164v-.164l.164-.164v-.328l-1.8-1.312.164-.492v-.164l-1.477.328a19.469,19.469,0,0,0-4.758-.984h-.984l-.164.164q-.9,2.625-1.969,2.625h-.164a12.321,12.321,0,0,0,1.641-4.43,6.637,6.637,0,0,0-.984-3.281q1.313,0,1.313-1.477l-.328-3.937q0-1.148,2.789-1.148l7.547.492h.328a6.747,6.747,0,0,0,3.609-.984h.164a.58.58,0,0,1-.164.492.58.58,0,0,1-.492.164v.328l6.563.164q4.594,0,5.25-2.953v-.164q-1.559,0-1.969-2.625v-.328h.328l.82.492.328-.328v-.164q-.862-1.6-6.235-1.809Zm-26.086,1.8a2.572,2.572,0,0,1,2.133-.82l2.953.656v.164l-.82.164-4.1-.164Zm17.719-.328,2.133.656v.164l-.328.328-2.133-.492V-55.8Zm-5.086,2.461.82-.164h.984q.492,0,.492.82h.328V-53.5h.164v.164a2.484,2.484,0,0,1-1.969.984q-.164-1.312-.82-1.312ZM254.871-50.7l.984.164h.164l.164-.164.164,1.477q-1.477-.41-1.477-.82Zm2.3,16.242q.943,0,3.609-1.8l.82.492q0,.328-1.312.492a1.127,1.127,0,0,0,.656,1.148h1.313v.328q-.082.328-.82.656l-1.8-.164h-.164l-.164.164.328.82v.164L258-32.486v.164l-.164.164v.82l-1.148-.492.164-2.461v-.164Zm14.109-.656.492-.164L273.9-34.13h.164q0,1.107-1.641,1.477h-.164v-.164l.328-1.477q-.2-.656-1.312-.656Zm-11.812.492a2.573,2.573,0,0,0-2.133.984v.328h1.313q.82,0,.984-.492v-.656Zm.656,6.4q-1.189,1.477-4.594,1.477h-1.641a5.439,5.439,0,0,1-2.133-.328v.164l-.164.164v.82l.82.82a12.91,12.91,0,0,0-.82,4.43v2.133a26.8,26.8,0,0,0,.656,5.086q0,2.789,8.039,2.789h2.953a27.629,27.629,0,0,0,6.727-.82,57.782,57.782,0,0,0,9.352.984h2.3q6.234,0,6.234-4.594l-.164-.82q-1.6-2.789-8.2-2.789h-4.922l-.492.656v.164l-2.625-.328h-.656q-1.271,0-1.477.656a18.246,18.246,0,0,0-6.562-.82,2.48,2.48,0,0,1-2.461-1.969q.984-.7.984-4.266v-3.281l-.328-.328Zm-5.578,8.367q0-2.789,2.625-2.789-.656,2.789-2.461,2.789Zm5.578,4.1.492-.164,1.313.328q-1.477,2.461-1.969,2.461l-.164-.164.656-.82V-15.1l-.328-.492Zm18.211,2.461.82-.164h.656V-12.3l.328.492v.164h-.492a4.624,4.624,0,0,1-1.315-1.645Zm14.109,5.578a14.481,14.481,0,0,0-5.086,1.641h-.164q0-.328.984-.492v-.656l-12.141-.328a74.611,74.611,0,0,0-9.023.656v.328h.492v.328l-.492.164A2.333,2.333,0,0,0,265.7-6.4v-.164l.328-.492v-.328l-.164-.164-1.477.164-2.133-.164q-2.789,0-3.937,1.148h-.164L256.84-7.547h-.328q0,1.477-3.117,1.477h-.328q-.246,0-.656-1.148h.164l-.328-.328h-7.383l-.328.328v4.594q0,.246,1.148.656a18.834,18.834,0,0,1,4.43-.984h.492a4.784,4.784,0,0,1,3.773,1.477,22.525,22.525,0,0,0-4.43-.656h-.82A10.852,10.852,0,0,0,244.7-.984v.328l8.039.492,20.836-.164h.164A3.224,3.224,0,0,1,276.363-1.8h.164v.328q-1.8.41-1.8.82v.164l.164.164h.164l.164-.164h1.313l2.625.328h.328a1.08,1.08,0,0,0,1.148-.82l-.328-.656V-1.8q.738-.123,1.969-2.461,1.066.41,1.148.82v.164l-.984.164v.328l.82.164h5.25l1.641-.164q0,1.312,1.477,1.313V-.98l-.492.164q-.82,0-1.969-1.477H289l-.164.164-.492.656h-.492l-.984-.82q-.328,0-.328.82h-1.312l-.656.492q0,.861,9.844.984l.328-.492v-.5l-.492-4.1L294.58-6.4a2.51,2.51,0,0,0-2.139-1.315Zm-36.422,1.8,1.477-.328h.164l.164.164-.82.656.492,1.477v.164q-1.8-1.107-1.8-2.133Zm16.406,2.133q0-.41.984-.492.2-.984.492-.984h.328q1.641.123,1.641.984V-4.1H274.23l-1.8.492ZM259.3-1.969q0-.574,1.8-.82h.328l.492.492v.328Zm3.117.328A.879.879,0,0,1,263.4-2.3h1.313v.164q-.123.492-.984.492Zm16.406.492.492-.164h.328l-.492.492Zm8-67.266q-3.281.369-3.281.984l.328.328h.164q0-.492.328-.492h1.148l-.328.492v.164l.656.82-1.312-.328-.328.328q0,.656-.492.656L283.541-63q0,1.8,5.742,1.8h1.477a3.891,3.891,0,0,0,3.117-1.148l-.328-.328h-.328l-3.117.492-.82-1.969a.89.89,0,0,1,.656-.656,6.771,6.771,0,0,0,3.445,1.148l1.969-.492v-.328h-1.8l-.328-.328v-.328l1.148.164h.984l.164-.164,1.477,1.8V-63l-1.148-.82h-.164l-.164.164.164.492-.328,1.313q.328.984.656.984h33.3a3.943,3.943,0,0,1,2.461-1.641h.164l-.164.492.492.492-.328.492v.164h8.531l.328-.328v-6.727l-.164-.164-2.625.164-4.594-.164h-2.461L322.1-68.25l-4.43.164q-.328,0-.328.82l-1.477,2.3h-.984a2.617,2.617,0,0,0-1.477.656h-.328l.328-.656-.328-.656v-.328h.164l.164.164h1.477q.861-.41.984-.984v-.164L315.7-67.1l-1.969.492h-.164l-.492-.656q2.625-.2,2.625-.656v-.164l-8.531-.164H303.56a29.37,29.37,0,0,0-8.7.984q0-.492-1.477-.82h-1.148l-1.312.492q0-.328-1.148-.492h-.164l-.164.164.328.984v.164h-.82a7.645,7.645,0,0,1-2.133-1.642ZM296.01-67.1h1.148v1.8q-1.148,0-1.148-1.641Zm13.945.328h1.8q0,1.148.82,1.148,0,.615-2.133.82-.282,0-.487-1.969ZM299.947-64.8q0-.574,1.8-.82h.164v.492l-.328.492-.656-.164-.82.164Zm21.492-.82h.984l-.328,1.148q0,.492.984.492,0,.451-1.641.656a1.127,1.127,0,0,1-1.148-.656v-.328l.492.328h.164l.492-.492Zm-30.187.656,1.313-.492h.164v.328a.58.58,0,0,0-.492.164.58.58,0,0,0-.164.492h-.492l-.328-.328Zm9.188.82h.492l.82.82h.164l.164-.164.164.492-.492.328h-.164l-1.148-.164Zm-14.93.984,2.3,1.148v.164h-.328Q285.51-62.385,285.51-63Zm11.484.984,1.148-.328H300.6q0,.492-1.8.492h-1.641l-.164.164Zm15.586,3.938a17.242,17.242,0,0,0-10.336,2.953q-1.518,1.641-2.461,1.641-3.117,1.354-5.414,6.4-3.281,9.475-3.281,13.945,0,1.8.82,1.8v.984a20.939,20.939,0,0,0,2.133,9.188q4.061,8.039,8.859,8.039v.328l-.984-.328-.328.328v.328a27.5,27.5,0,0,0,10.664,2.625h2.133a4.526,4.526,0,0,0,3.281-1.148l1.477.328h.984a6.94,6.94,0,0,0,4.266-2.461v-.328h-.164l-.82.164v-.328l.82-.164h1.477l.492-.492v-.328l-1.969.164h-.164a1.574,1.574,0,0,0-.492-1.148h1.148l3.117-1.477v-.328l-2.3-.656v-.164l.328-.328h.328l1.313.82.656-.328q0-1.025-1.312-1.148h-.328l-2.3.328q-1.641-.164-1.641-1.312h2.789v-.492L325.213-21l.984.164q2.953,2.133,3.445,2.133v.164q-1.312.164-1.312.492v.164q0,.246,1.313.656h.164q2.953-4.758,2.953-8.039v-.164a4.213,4.213,0,0,0-3.445-4.43v.328a18.97,18.97,0,0,0-1.641,3.938v.492h-.82a2.687,2.687,0,0,0-1.641.984l-.984-.164-2.461,2.953v.82l-.656.164.164,1.148-.328.328a1.574,1.574,0,0,0-.492-1.148l-.492.492q-1.6.656-1.641.984v.328q4.758.7,4.758,1.313v.164h-.164l-3.773,1.148-1.8-.492v-.164h.164l.82.328.328-.328q0-.7,1.477-1.148,0-.533-3.937-.656a7.366,7.366,0,0,0-4.43,1.148l-.328-.328h-1.477l-.328-.328q1.313,0,1.313-.328v-.164l-1.312-.164-1.312.492-.492-.984q-3.4-2.092-3.609-3.281l-.82.164h-.328A1.479,1.479,0,0,1,301.6-22.8a1.082,1.082,0,0,0,1.148-.656v-.492l-1.477-2.953.164-1.148h-.656a3.671,3.671,0,0,1-1.8.984H298.8v-.164l.328-.984h1.8l.164-.164-.328-.82.328-.82v-.164l-.164-.164q-.82,0-.82-.328.984,0,.984-.492v-.33a7.752,7.752,0,0,0-.656-2.789q-1.641-.451-1.641-.82v-.164h.164l.164.164h.492a1.342,1.342,0,0,1,1.148-.492v-1.312a9.1,9.1,0,0,1,.492-2.789q2.789-6.07,2.789-7.711v-.164h.82q.943,0,2.625-1.8,1.969,0,1.969-2.3l-.328-1.148h.164l.164-.164h.328v.164l-.164.164v.164q.82,1.969,1.148,1.969h.492l.328-.328L311.1-52.5l.328-.328h.492l.492.492v.164l-.164,1.148h.164l.164.164h.492a2.388,2.388,0,0,1,1.477-.82v.82l.328.328h.82a7.089,7.089,0,0,1,3.445,1.148,4.345,4.345,0,0,0,3.773,1.641v.164l-.164.164v.82q0,1.887,2.461,3.609l-.164.82v.656a2.325,2.325,0,0,0,2.133,1.148h1.313q4.594-.656,4.594-2.953v-.656q0-.82-1.8-2.953l.492-1.641-1.641-.656.492-.656v-.164q0-1.518-3.117-3.281-.287,1.641-.656,1.641h-.492v-.164l.656-2.3a20.478,20.478,0,0,0-12.8-4.1Zm-2.3,3.609,1.148.328q-.082.492-1.148.984Zm-12.633,6.4.82-.164h.164l1.148.82h.82l.164-.164q0,.533-1.641.984-1.477,0-1.477-1.312Zm30.023.164.984-.328h.164l.164.164q.451,1.641,1.477,1.641l-.656.492-.984-.164h-.656l-.492-1.641ZM323.4-46.752l1.148-.328q1.148.369,1.148.656v.656q-1.148.123-1.148.656h-.164l-.164-.164.164-.492v-.164l-.82-.656Zm5.086,1.477a1.89,1.89,0,0,0,1.148.492h.328l1.641-.492v1.148l-1.641.164a2.316,2.316,0,0,1-1.641-.656ZM293.713-42.82q0-1.025,1.8-1.477v.164h.328v.82L297.322-42q0,.656,1.8.656v.164q-1.969.7-1.969,2.133h-3.117v-.164l.82-1.312-.328-.656v-.164q1.477-.41,1.477-.82v-.164l-.328-.328a2,2,0,0,0-1.312.656h-.328Zm4.1,4.594q0-1.066,1.313-1.477v.164h.328v.164a1.611,1.611,0,0,0-.82,1.477l-.82-.164Zm-2.953.656h.328a4.482,4.482,0,0,1,2.133,1.148l-.492.164a1.082,1.082,0,0,0-1.148-.656h-.328l-.164.164Zm-1.148,3.609q0-.574,3.773-.984l-.328,1.313-.82-.328-3.281.328q-.492,0-.492-.328v-.164h.328Zm-1.148,2.133q0-.328.492-.328l.164-.164q2.01,0,2.3-.328v.328a4.781,4.781,0,0,1-1.969.656h-.164Zm1.313,3.938.656-.492q2.912,0,4.43,3.117H298.8a3.671,3.671,0,0,1-1.8-.984,3.363,3.363,0,0,1-2.461,1.313l-.82-.82v-.164l.984.492h.164l.328-.328v-.328q-1.318-1.109-1.318-1.807Zm31.336.328-.492.492v.164l.492.492h.164l1.477-.328v-.164l-.984-.656ZM293.385-25.1l.656.164q0,.287-.82.492v-.492Zm2.3.82h.328l.984.492v.164l-.164.164v.492q0,.492,2.461.492v.164A11.156,11.156,0,0,0,295.518-21h-.164l.328-.492-.82-.82v-.328q.984,0,.984-.328v-.164Zm7.875,4.758q.615,0,1.148,2.3l2.3-.164,1.148.164v.164L307-16.734l-3.773-.492h-.164v-.164Zm8.367,3.938h.492a4.323,4.323,0,0,0,2.461,1.313q-.984,1.8-1.8,1.8a5.335,5.335,0,0,0-1.148-2.789Zm5.25,2.3q0-1.148,1.8-1.477h.164q0,1.189-1.641,1.641h-.164Zm-1.8.656,1.641.164.656-.164h.164a.89.89,0,0,1-.656.656l-1.8-.164h-.164v-.328Zm1.641,4.922-.656.164q-17.227.328-17.227.984a5.528,5.528,0,0,0-3.117-.984l-7.875.984a15.359,15.359,0,0,1-4.1-.984v.328l.164.164a20.734,20.734,0,0,0-.984,5.414v.492A1.127,1.127,0,0,0,283.869,0h2.789l36.258-.492,4.1.328h.328l.492-.492,1.313.492h.82q.656-.328.656-.82a3.239,3.239,0,0,0,2.3.984h1.313l5.578-.492h.492q.533,0,.656-2.133,0-1.8-.492-1.8l.492-1.312L340.8-7.219h-.328l-2.3-.328q-.656.082-.656.492v.492l.164.164,1.313-.328h.164l-.492,1.148.656.984v.164l-.164-.164Q336.2-5,336.2-5.415v-.164l.164-.164,1.148.164h.492l.164-.164q0-.246-1.312-.656l.164-.984v-.164l-.164-.164q-1.641,0-1.641,1.477a7.292,7.292,0,0,0-4.266-1.312h-.492a2.091,2.091,0,0,0-1.969.984,5.216,5.216,0,0,0-3.281-1.148h-.164l-5.578.328ZM305.525-4.594q0-1.107,1.477-1.477l.328.984a1.89,1.89,0,0,1-1.148.492Zm18.047.492,1.477.492v.164a2.446,2.446,0,0,1-2.133,1.313v-.328l.82-.984-.328-.328v-.164Zm10.172,2.133q.123-.82.492-.82h.656q.492.123.82,1.148l-.328.328h-.328a2,2,0,0,1-1.312-.656Zm-25.1-.328v-.164l2.625.492h.328a2.29,2.29,0,0,0,1.477-.492V-1.8q-2.789.328-2.789.82-1.027,0-1.642-1.32ZM328.535-68.25l-.328,1.641h-.328l-.164-.164q-.164-1.312-.492-1.312h-.492l-.164.164A8.3,8.3,0,0,0,326.9-65.3l1.8-.492.656.656v.164l-1.641.328-.984-.164v3.773l10.828.164q2.42-.164,2.789-1.312.328,0,.984,1.313l1.477-.164,24.609.164a89.035,89.035,0,0,0,10.5-.82l.492.82,3.117-.164q.82,0,.82-1.8v-1.148q-1.107-4.43-3.773-4.43h-1.148a6.043,6.043,0,0,0-2.625.984q0-.615-2.625-.82l-11.648.164Q359-66.111,358.39-66.111l.492-1.969h-8.7Zm35.273,4.43q.2-.984.492-.984.9,1.148,1.641,1.148v.328l-.164.164a3.978,3.978,0,0,1-1.968-.656Zm-4.1.492,1.8.656,1.313-.164.328.984-.328.328h-.164q0-.984-.328-.984l-1.8.328h-.82ZM348.059-58.57a45.219,45.219,0,0,0-6.4.328q-5.209,0-5.906,5.906v.984a4.512,4.512,0,0,0,.82,2.3,2.519,2.519,0,0,0-.82,1.969q.246,2.625.656,2.625,1.148-.574,1.148-.82,0-.7-1.148-1.641v-.492a2.894,2.894,0,0,0,1.641-.492h.164q0,1.641,1.477,1.641l-1.8,1.313v.164l.328.492.492-.328h.164l.328,1.148v.164l-3.117-.656-.328.82.328,10.336-.164,1.148q1.477.205,1.477.492-1.477.369-1.477.656v5.086l.328,2.3q-.328,0-.492,1.641l.328.984.656-.164q1.477.369,1.477.82v.492l-.492.164-1.477-.492-.328.328-.164,2.461q.164,1.148.492,1.148a3.817,3.817,0,0,1,2.133-1.477l.492.164v.164l-2.953,1.477q0,3.076,1.969,4.1L339.2-12.3h.164v.492q-1.148.2-1.148.656t1.313.656l1.148-.328a6.255,6.255,0,0,1,3.773-1.641,2.573,2.573,0,0,1,.984-2.133q0-.451-1.477-.492l-1.641-1.8h-.164q0,.533-.82.82v-.164l-.164-.164a6.568,6.568,0,0,1,2.625-1.148l-.164-.656q.492-1.477,1.148-1.477l.656.164h.164v-.82l-.328-8.039.328-2.133q0-.984,2.789-.984a11.337,11.337,0,0,1,4.922,1.477q4.881,3.281,5.578,3.281v.492h-.164l-.984-.164h-.164l-.164.164v.328q4.266,5.742,4.266,6.234l2.133-.656h.492q-1.641.82-1.641,1.969v.328a2.834,2.834,0,0,0,2.3,2.953l-.164.656q0,.984,2.133,2.133l-.328.492q0,.246,1.313.82l1.148-1.477h.82l.328,1.148,1.8-.82q2.789-.41,2.789-1.641v-.164a5.856,5.856,0,0,0-1.641-3.281v-.164h.492v-.492l-.328-.492q-2.3-.369-2.3-.82l.984-.984v-.492l-.164-.492q-1.682-4.43-9.023-10.992.328-1.312.656-1.312h.328l.492.656q1.518,0,2.953-3.445l1.148,1.477h.164q.287,0,.492-.82a11.26,11.26,0,0,0,4.758-9.68V-46.43q0-5.045-5.414-9.023Q365.2-58.57,348.059-58.57Zm13.781,4.43,2.133.82a.89.89,0,0,1-.656.656,3.746,3.746,0,0,0-1.8-.82v-.164Zm1.641,2.953q3.24-.656,3.938-1.312l.984,2.625a5.946,5.946,0,0,0-2.133.82q0-1.354-2.789-1.969Zm-18.047.656q5.578-.615,5.578-1.477h.164v.656q9.639,1.025,11.648,2.3,0,1.559,1.969,2.461-.984,1.8-1.477,6.727v.164l-.82-.164h-.164l-2.133.984v.492h1.313q-.082.328-.82.656l-2.625-.656-.328.328v.164l.492.492h.164l-.164.492v.164h1.8l.492.492v.164l-1.477-.328h-.492l-.328.328v.328q.082.328.82.656a3.009,3.009,0,0,0,1.641-.82v.492q0,1.148,1.641,1.148a1.425,1.425,0,0,1-1.312.82l-2.461-.164q-.246-1.969-1.148-1.969-.492,0-.492.328v1.641h-.656v.492l.328.328.82-.656h.328q-.123.984-1.312.984h-.492q-.656,0-.82-2.953v-.328h.164l.164.164h.492a2.273,2.273,0,0,0,1.8-1.148,4.412,4.412,0,0,0-3.445-1.312l-8.531.164H345.6a12.325,12.325,0,0,0-.984-3.609q0-.287.82-.492l-.328-.984.164-1.8q0-.656-.492-.656a11.761,11.761,0,0,0,.82-4.266Zm14.766-.328.492-.492h.656q1.23,0,1.313.492l-.492.164Zm-20.18,2.953q.7-1.969,2.133-1.969h.328A4.59,4.59,0,0,0,341-46.758q-.611-.164-.98-1.148Zm-1.148,5.742q0-.615,2.625-1.312h.328a1.8,1.8,0,0,0,.656,1.148l-3.281.164h-.164l-.164.164Zm30.352,2.625a4.579,4.579,0,0,1,2.953-1.477h.164v.164l-.164.164q-2.3.574-2.3,1.477v.164l.164.164h-.164Zm-31.008.164q.2-.779.656-.82l1.313.164-1.477,1.477q-.288,0-.493-.821Zm2.625,10.664h1.313v.656l.328.984h-.164l-.164.164a3.88,3.88,0,0,1-1.312-1.641ZM336.41-23.3l.328-.328h.164q.328.082.656.82l-.328.328Zm3.609,7.383h.164a1.384,1.384,0,0,1,.82,1.148q0,.82-.492.984l-.328-.82-1.641.492h-.164v-.656q1.642,0,1.642-1.145Zm1.969,2.133a1.127,1.127,0,0,1,1.148-.656h.328l.328.328v.82h-.164ZM370.7-7.875l-21,.984-1.8-.164v.328l1.969,1.148-.328.328h-.492l-.984-.984q-.943,1.8-2.133,1.8v.164l.656,1.148L345.6-.656v.164l11.977.328h6.234L375.3-.492V-.82h-.328V-.984l1.313-.328h.164l-.328.82.328.328h.328A4.482,4.482,0,0,0,378.9-1.312h.328q0,1.148,1.641,1.148h.82l.328-.328V-5.25l-.328-.328a1.89,1.89,0,0,0-1.148.492h-.164l-.328-.328v-.164l.164-.164q1.8-.451,1.8-.82v-.656l-.328-.328h-.656a2.687,2.687,0,0,1-1.641.984h-.164v-.164l.164-.164v-.164q0-.7-5.906-.82Zm-28.055.328a29.569,29.569,0,0,0-7.383,1.313V-6.4q0-.369,1.641-.656v-.328H326.895l-.328.328v.492l.328,5.086-.164.984V-.33l.164.164.656-.164,5.906.164Q335.1-.41,335.1-1.148h.164A5,5,0,0,0,338.379,0a10.821,10.821,0,0,0,4.758-1.477v.492a2.519,2.519,0,0,0,1.969-.82v-.164l-.164-.164-.82.164.164-1.312v-.328l-1.97-.491,2.625-3.117-.328-.328Zm-14.11,2.133q0-.738,1.148-.984,1.8.164,1.8.492l-2.789.492ZM339.2-4.266q0-.287.82-.328h.164l-.492,1.477q.164.82.82.82v.328l-1.148.164H339.2v-.82q0-.492-1.148-.492,0-.287,1.148-.656h.164Zm9.516.984,1.969-.164q.82,0,.984.492A4.409,4.409,0,0,1,349.207-1.8h-.164ZM370.863-68.25l-.328.328v2.3l.164,1.477L370.535-63v1.641q0,.246.656.492l3.773-.164,1.313.328.328-.328v-.328q-1.312-.164-1.312-.492h2.133l.328-.328q0-.533-2.625-1.148,0-.328,1.148-.492,1.969.328,1.969,1.477l-.82,1.148v.164h3.281l.164-.164a12.545,12.545,0,0,0-1.8-2.953l-4.266-.984h-.164q-.492,1.477-.82,1.477,0-.984-.492-.984h-1.8a2.954,2.954,0,0,0,.656-1.477h.328l1.148.82.492-.328L373-66.445v-.164l.164-.164,1.8.328h.164q.287,0,.656-.984a5.042,5.042,0,0,1,1.8.984Q380.42-63,382.02-63h.164l.328-.328-1.148-1.148v-.164l3.773-.328h.164l-.328.328L385.3-63l.984-.164h.164a2.116,2.116,0,0,0-.656,1.313v.328l.328.492.164-.164,3.938.492h.656q.2-1.477.492-1.477h.164l.492.328,1.313-.328v.164l.164.164q0,.246-.656.492l.328.328h1.477l.328-.328V-63l1.148.328h.492a4.73,4.73,0,0,1,2.133-1.148h.82v-.492l-.656-.82V-65.3l1.148-.164h.164a1.686,1.686,0,0,1,1.641,1.148q-2.5,0-6.07,3.117v.164h.164l.164-.164h1.641l10.992.328h.164a19.637,19.637,0,0,0,6.727-.984,3.831,3.831,0,0,0,2.953,1.148h1.641l.328-.328v-5.25a3.049,3.049,0,0,0-.492-1.969l-3.281.164h-.984l-14.93-.328h-.492a26.092,26.092,0,0,0-8.859,1.313q0-.9-1.8-1.312h-.82l-.984.328-4.1,2.133q-1.271-1.641-1.641-1.641l-.328.82h-.492l.328-.656-1.312-.82H379.4L378.082-67.1q0-.984-3.445-1.312l-3.117.164Zm8.039.82.492-.164,1.8.82q0,1.148.984,1.148v.164a1.8,1.8,0,0,0-1.148.656H380.7v-.164q-1.8-1.68-1.8-2.46Zm9.68.492.82-.492h.328l.984.984-1.477.656-.656-.984Zm-.656.82,1.148.328v.164l-.492.164q0,.328.492.328v.328h-.656a1.478,1.478,0,0,1-.82-.82Zm26.742,1.8q0-1.477,1.8-1.8.287,0,.492.82-.041.41-2.133.984Zm-24.937-.164a1.69,1.69,0,0,1,1.477-.984h.328a3.97,3.97,0,0,0-.82,1.8h-.164q0-.656-.82-.656Zm-5.742,1.8a1.89,1.89,0,0,0-1.148.492l1.313.82h.328l.328-.328v-.492l-.492-.492Zm21.984,4.922a35.36,35.36,0,0,0-5.414.492v.328l.82.492-.328.328h-.492a1.758,1.758,0,0,1-1.641-1.312h-.328q0,.656-.984.656a9.536,9.536,0,0,0-2.789-.82,6.793,6.793,0,0,0-3.281.82,24.866,24.866,0,0,0-5.742-.82H383.66q-4.184,0-5.578,3.281.082.656.492.656h1.477l.164-.164q.984.574.984.984l-.656.328-1.8-.656h-.656l-.328.328,1.477,1.148v.492q-1.559.82-1.641,1.313l.164,9.188v4.1l-.164,1.969,1.148.492h.164q2.994-3.609,4.1-3.609V-37.9l-.82-.82v-.164q.984,0,.984-.328a1.214,1.214,0,0,0-.984-.656v-.164h.164q1.969.7,1.969,2.3v.492a2.617,2.617,0,0,1-.656,1.477l-1.8-.656-.984.164q-.943,3.117-1.641,3.117H378.9l-1.148-.164v.164l-.164.164v.984l.492,2.461-.328,1.8v.164l2.3.328a19.167,19.167,0,0,0,4.43-.984v-.164l-.328-.328a1.963,1.963,0,0,1,.82-1.477h.492l1.148.984.656-.656v-1.477l.328-.328h3.117l9.68-.328,3.445.328v-.164l-.164-.984q0-1.23,2.133-1.641h.328q-1.477,1.436-1.477,2.3v.164l.328.328h1.8q4.266,0,4.266-3.281v-.164a2.936,2.936,0,0,0-.656-1.8q-2.01-2.3-7.055-2.3a27.712,27.712,0,0,0-7.711,1.313v.328a7.272,7.272,0,0,1,2.461.492v.164h-.328q-.533,1.313-.82,1.313h-.328l-.164-.164v-.164l.164-.164v-.328l-1.8-1.312.164-.492v-.164l-1.477.328a19.469,19.469,0,0,0-4.758-.984h-.984l-.164.164q-.9,2.625-1.969,2.625h-.164a12.321,12.321,0,0,0,1.641-4.43,6.637,6.637,0,0,0-.984-3.281q1.313,0,1.313-1.477l-.328-3.937q0-1.148,2.789-1.148l7.547.492h.328a6.747,6.747,0,0,0,3.609-.984h.164a.58.58,0,0,1-.164.492.58.58,0,0,1-.492.164v.328l6.563.164q4.594,0,5.25-2.953v-.164q-1.559,0-1.969-2.625v-.328h.328l.82.492.328-.328v-.164q-.862-1.6-6.235-1.809Zm-26.086,1.8a2.572,2.572,0,0,1,2.133-.82l2.953.656v.164l-.82.164-4.1-.164Zm17.719-.328,2.133.656v.164l-.328.328-2.133-.492V-55.8Zm-5.086,2.461.82-.164h.984q.492,0,.492.82h.328V-53.5h.164v.164a2.484,2.484,0,0,1-1.969.984q-.164-1.312-.82-1.312ZM380.871-50.7l.984.164h.164l.164-.164.164,1.477q-1.477-.41-1.477-.82Zm2.3,16.242q.943,0,3.609-1.8l.82.492q0,.328-1.312.492a1.127,1.127,0,0,0,.656,1.148h1.313v.328q-.082.328-.82.656l-1.8-.164h-.164l-.164.164.328.82v.164L384-32.486v.164l-.164.164v.82l-1.148-.492.164-2.461v-.164Zm14.109-.656.492-.164L399.9-34.13h.164q0,1.107-1.641,1.477h-.164v-.164l.328-1.477q-.2-.656-1.312-.656Zm-11.812.492a2.573,2.573,0,0,0-2.133.984v.328h1.313q.82,0,.984-.492v-.656Zm.656,6.4q-1.189,1.477-4.594,1.477h-1.641a5.439,5.439,0,0,1-2.133-.328v.164l-.164.164v.82l.82.82a12.91,12.91,0,0,0-.82,4.43v2.133a26.8,26.8,0,0,0,.656,5.086q0,2.789,8.039,2.789h2.953a27.629,27.629,0,0,0,6.727-.82,57.782,57.782,0,0,0,9.352.984h2.3q6.234,0,6.234-4.594l-.164-.82q-1.6-2.789-8.2-2.789h-4.922l-.492.656v.164l-2.625-.328h-.656q-1.271,0-1.477.656a18.246,18.246,0,0,0-6.562-.82,2.48,2.48,0,0,1-2.461-1.969q.984-.7.984-4.266v-3.281l-.328-.328Zm-5.578,8.367q0-2.789,2.625-2.789-.656,2.789-2.461,2.789Zm5.578,4.1.492-.164,1.313.328q-1.477,2.461-1.969,2.461l-.164-.164.656-.82V-15.1l-.328-.492Zm18.211,2.461.82-.164h.656V-12.3l.328.492v.164h-.492a4.624,4.624,0,0,1-1.315-1.645Zm14.109,5.578a14.481,14.481,0,0,0-5.086,1.641h-.164q0-.328.984-.492v-.656l-12.141-.328a74.612,74.612,0,0,0-9.023.656v.328h.492v.328l-.492.164A2.333,2.333,0,0,0,391.7-6.4v-.164l.328-.492v-.328l-.164-.164-1.477.164-2.133-.164q-2.789,0-3.937,1.148h-.164L382.84-7.547h-.328q0,1.477-3.117,1.477h-.328q-.246,0-.656-1.148h.164l-.328-.328h-7.383l-.328.328v4.594q0,.246,1.148.656a18.833,18.833,0,0,1,4.43-.984h.492a4.784,4.784,0,0,1,3.773,1.477,22.525,22.525,0,0,0-4.43-.656h-.82A10.852,10.852,0,0,0,370.7-.984v.328l8.039.492,20.836-.164h.164A3.224,3.224,0,0,1,402.363-1.8h.164v.328q-1.8.41-1.8.82v.164l.164.164h.164l.164-.164h1.313l2.625.328h.328a1.08,1.08,0,0,0,1.148-.82l-.328-.656V-1.8q.738-.123,1.969-2.461,1.066.41,1.148.82v.164l-.984.164v.328l.82.164h5.25l1.641-.164q0,1.312,1.477,1.313V-.98l-.492.164q-.82,0-1.969-1.477H415l-.164.164-.492.656h-.492l-.984-.82q-.328,0-.328.82h-1.312l-.656.492q0,.861,9.844.984l.328-.492v-.5l-.492-4.1L420.58-6.4a2.51,2.51,0,0,0-2.139-1.315Zm-36.422,1.8,1.477-.328h.164l.164.164-.82.656.492,1.477v.164q-1.8-1.107-1.8-2.133Zm16.406,2.133q0-.41.984-.492.2-.984.492-.984h.328q1.641.123,1.641.984V-4.1H400.23l-1.8.492ZM385.3-1.969q0-.574,1.8-.82h.328l.492.492v.328Zm3.117.328A.879.879,0,0,1,389.4-2.3h1.313v.164q-.123.492-.984.492Zm16.406.492.492-.164h.328l-.492.492Zm26.783-66.937h-21.82l-.164.164.164,3.938-.164,3.117.164.164.164-.164,7.711.164,2.625-.164V-61.2q-.984-.328-.984-.656v-.492q2.461.533,3.117,1.641l1.148-.164h20.016L463.6-60.7v-.164l.164-.164v-6.891l-1.312.328-4.594-.492h-.82a3.318,3.318,0,0,0-1.641.492l.492,1.313v.328q-.943,0-1.969-1.969l-11.648-.164a6.354,6.354,0,0,0-3.281.82,2.442,2.442,0,0,0-1.969-.82h-1.148q-3.609.533-3.609,1.313H432.1q-.164-1.316-.493-1.316Zm-11.977,1.313,1.477.328v.164l-.656.984h-.328q-.369,0-.492-.984ZM412.084-64.8l1.477-.328v1.148h-1.148l-.328-.328Zm36.258,1.477,1.8-1.312.328.82a2.258,2.258,0,0,1-1.8.82Zm4.1.82,2.133-.656v1.148h-.656l-1.8-.328q-.492,0-.492.984H451.3l-.164-.164.328-1.148.82.164Zm-23.46,1.3q.861-1.148,1.477-1.148l.656.328q0,.82-1.477.82Zm16.242,3.281-5.086.164h-2.133l-1.969.164v-.164h-.492q0,1.436-1.641,1.641l-.328-.82-3.281,1.641h-.164l.164-.492q0-.41-1.312-1.312l.328-.492v-.164l-.164.164-6.4-.164a15.81,15.81,0,0,0-4.43.656Q417-56.236,417-53.816v.656q.041.82.328.82,0,2.01,5.742,2.3h2.133q5.66,0,6.727.82l-.164,16.734a44.68,44.68,0,0,0,.82,7.055,10.194,10.194,0,0,0-.82,3.445,4.289,4.289,0,0,0,1.477,3.281h-.656q-.984,0-.984,1.313v.984q0,4.717,4.922,6.07h.656a4.589,4.589,0,0,0,3.117-1.8l-.328-.328h-.82l-2.133.82h-.164l.656-.82q0-.369-.82-.492v-.164h.492l3.609.328q.82,0,.82-2.461a3.78,3.78,0,0,0-.656-1.8q.492,0,.492-.328v-1.969l-.164-.164-1.477.328a1.051,1.051,0,0,1-.984-.656v-.164h.164l.164.164h.164l2.133-.656V-49.7l.164.164,3.445-.492q1.518,0,1.8-2.3a11.05,11.05,0,0,0,3.938,1.313v.164q-1.271,0-1.477.656v.164l.328.328H450.8q3.281-.082,3.281-.82V-50.7H453.1l-1.148.164V-50.7h-.328v-.328l.82-.164,2.461.656a4.951,4.951,0,0,0,1.969-3.445v-.492q0-3.441-11.649-3.441Zm-6.234,3.281q0-1.641,3.445-2.625-1.477,3.938-3.117,3.938h-.492v-.164l.492-.164Zm-4.922.164q0-.287.82-.492l1.8.492q0,.82-1.477.82h-.328l.164-.82Zm16.242,1.641a2.8,2.8,0,0,1,1.969-1.148l.492.164q-1.189,1.313-1.8,1.313Zm-23.461,1.8q.738-1.8,2.133-1.8.738.328.82.656v.328h-.984a3.213,3.213,0,0,1-1.8.82Zm8.7,1.313q1.148,0,1.148.984l-.328.82.164.164q2.789.41,2.789,1.148l-.328.328a4.526,4.526,0,0,0-3.281-1.148l.328-.492-.492-1.641Zm-.328,4.266h.164l2.789,1.313q-.082.328-.82.656l-1.8-.328.164-.82v-.328q0-.328-.492-.328Zm.164,3.773,2.3.82v.164l-1.641.328h-.164v-.164h.328v-.328q0-.492-.984-.492v-.164Zm.656,2.461h.492l2.789,1.313v.656l-.164.164-1.312-.328-.328.328a2.277,2.277,0,0,1-1.477-1.969ZM434.729-27.9h.82q.943,1.313,1.313,1.313l-.492.492a3.978,3.978,0,0,1-1.969-.656Zm2.625,3.445,1.641.164-.328.656-1.641-.164Zm-3.609,2.789.492-.492h2.789v.492q-1.969,0-1.969.82a1.547,1.547,0,0,0-1.317-.81Zm-6.4,14.273-17.227.164q-.492,0-.492.328v1.313a4.8,4.8,0,0,0,.984,2.953q-.984,0-.984.492v1.8l.328.328h1.477q8.982,0,14.6-.328l4.43.328q.369-1.641.656-1.641h.328v.164L431.117-1v.656l.328.328h1.969q1.641,0,1.641-1.148a4.938,4.938,0,0,0,2.3.984,1.287,1.287,0,0,0,1.313-.984l.492.492-.328.492V0h24.609l.328-.328v-.984a1.479,1.479,0,0,0-.984-1.477l.82-.82-.164-1.641.164-1.641q-9.352-.492-17.883-.492a55.013,55.013,0,0,0-11.32.82,46.086,46.086,0,0,0-7.06-.82Zm4.266.82q2.625.984,2.625,1.477v.164h-.164l-1.312-.492-.492.492q-.451-.082-.656-1.312ZM426.029-4.43q0-.615,1.641-1.148h.164A3.6,3.6,0,0,1,426.686-4.1h-.164Zm-9.516.492h.164l.164,1.148v.328h-.492q-.656-.82-1.148-.82v-.164h.164l.656.164q.493,0,.493-.655ZM426.85-1.8l.492-.492h.328q1.8,0,1.8.492v.164q0,.287-.82.492Q426.85-1.436,426.85-1.8Zm27.316-66.281-.164.164.164,1.969v3.773q0,1.189.492,1.313h3.773a3.969,3.969,0,0,0,2.625-.82q.123.82.492.82H477.79a3.854,3.854,0,0,1,3.117-1.312v.328q-1.969.205-1.969.656l.328.328h4.1l1.8-2.461h.164l.164.656q0,.328-1.148,1.313v.164l13.617.492a109.575,109.575,0,0,0,13.781-.656l-.492-5.414.164-1.148v-.164l-52.664.164Zm17.063.984h.984q.287,0,.492.984-.451,1.148-.82,1.148h-.328l-.164-.164.164-.82V-66.6Zm17.391,1.641,1.148-.328v.164q2.3.779,2.3,1.477-3.445-.615-3.445-1.148Zm-9.68,7.219-.492.328q0,2.625-1.8,2.625h-.164v-.328q1.313-1.025,1.313-1.8v-.164l-.164-.164a14.691,14.691,0,0,0-9.023,3.117q-8.531,7.424-8.531,20.016v1.641a25.9,25.9,0,0,0,4.758,15.258q4.553,4.43,6.727,4.43h.164l-.164.492v.328q1.148,1.682,12.633,2.625,5.619,0,7.055-2.461v-.164h-.82L490.1-12.8v-.164l.328-.492v-.328l-.164-.164.656-.164a20.541,20.541,0,0,1,5.086.82,5.108,5.108,0,0,0,2.461-1.477q7.219-7.014,7.219-20.016a28.885,28.885,0,0,0-1.641-10.008q-1.641-.533-1.641-.984l.656-.656v-.492q-5.373-11.32-21.492-11.32Zm2.133,1.8h1.313q.82,0,.984.492v.328a1.082,1.082,0,0,1-1.148.656h-1.148Zm-12.141,5.906a2.038,2.038,0,0,1,1.641-1.148h.492q0,1.148-1.969,1.148Zm.656,16.406a24.3,24.3,0,0,1,1.313-7.711q3.076-8.859,11.813-8.859h.164q8.08,0,11.484,8.039l.984-.328h.328l-.328,1.969L496-31.992v.984l-.328,3.117a.58.58,0,0,0,.164.492.58.58,0,0,0,.492.164v.164q-2.789,1.271-2.789,3.773v.492l.164.164q-3.773,2.174-3.773,3.938l-.656-.328q-2.789.287-2.789,1.969-6.521,0-14.437-4.758l.328-1.148v-.164l-1.312-2.789-5.25,1.641h-.164a5.777,5.777,0,0,1,3.773-1.969h1.148l.164-.164A28.971,28.971,0,0,1,469.588-34.125Zm26.578-10.828q0-.533,1.641-.656l2.3.328v.164l-2.3.82Zm-34.945,7.875q.246-.656.492-.656h.164q1.271,1.148,1.8,1.148v.164l-.164.164Zm5.086,1.313h.164l1.313,1.148-.328.328h-1.8l-.164-.164.164-.492q.651-.455.651-.821ZM493.87-15.093q0-.41.984-.492h.82l.328.328v.492h-.328l-1.312-.328h-.328l-.164.164Zm-28.22,7.71Q454-7.26,454-6.727l.164,4.922L454-.328l.656.328,19.031-.164h1.148A3.22,3.22,0,0,1,476.8-1.476q.82.2.82.492,0,.492-.656.492v.328H483.7L510.439,0q1.148-.164,1.148-.492v-.82l-.164-3.609.164-1.969-.164-.492-.164.164-13.781-.164a10.739,10.739,0,0,0-5.906,1.313h-.656l-1.148-1.312-2.789.164Zm9.516,3.938q0-.41,1.641-.656v.328a1.372,1.372,0,0,1-1.312.82h-.328Z"
     id="ultrasecreto" />
</svg>
